<svg width="495" height="105" viewBox="0 0 495 105" fill="none" xmlns="http://www.w3.org/2000/svg">
<path d="M494.249 0.828125V80H483.702V0.828125H494.249Z" fill="#111111"/>
<path d="M465.556 34.3438H476.15V80H465.556V75.2188C461.212 79.2812 456.541 81.3125 451.541 81.3125C445.228 81.3125 440.009 79.0312 435.884 74.4688C431.791 69.8125 429.744 64 429.744 57.0312C429.744 50.1875 431.791 44.4844 435.884 39.9219C439.978 35.3594 445.103 33.0781 451.259 33.0781C456.572 33.0781 461.337 35.2656 465.556 39.6406V34.3438ZM440.525 57.0312C440.525 61.4062 441.697 64.9688 444.041 67.7188C446.447 70.5 449.478 71.8906 453.134 71.8906C457.041 71.8906 460.197 70.5469 462.603 67.8594C465.009 65.0781 466.212 61.5469 466.212 57.2656C466.212 52.9844 465.009 49.4531 462.603 46.6719C460.197 43.9531 457.072 42.5938 453.228 42.5938C449.603 42.5938 446.572 43.9688 444.134 46.7188C441.728 49.5 440.525 52.9375 440.525 57.0312Z" fill="#111111"/>
<path d="M390.644 0.828125V39.6406C394.863 35.2656 399.644 33.0781 404.988 33.0781C411.144 33.0781 416.269 35.375 420.363 39.9688C424.457 44.5312 426.504 50.2188 426.504 57.0312C426.504 64.0625 424.441 69.875 420.316 74.4688C416.223 79.0312 411.051 81.3125 404.801 81.3125C399.519 81.3125 394.801 79.2812 390.644 75.2188V80H380.098V0.828125H390.644ZM415.723 57.5C415.723 53.125 414.535 49.5625 412.16 46.8125C409.754 44 406.738 42.5938 403.113 42.5938C399.238 42.5938 396.082 43.9531 393.644 46.6719C391.238 49.3594 390.035 52.8594 390.035 57.1719C390.035 61.6094 391.223 65.1562 393.598 67.8125C395.973 70.5312 399.098 71.8906 402.973 71.8906C406.629 71.8906 409.66 70.5312 412.066 67.8125C414.504 65.0625 415.723 61.625 415.723 57.5Z" fill="#111111"/>
<path d="M325.951 56.8438C325.951 50.25 328.311 44.6406 333.029 40.0156C337.748 35.3906 343.498 33.0781 350.279 33.0781C357.092 33.0781 362.873 35.4062 367.623 40.0625C372.311 44.7188 374.654 50.4375 374.654 57.2188C374.654 64.0625 372.295 69.7969 367.576 74.4219C362.826 79.0156 356.998 81.3125 350.092 81.3125C343.248 81.3125 337.514 78.9688 332.889 74.2812C328.264 69.6562 325.951 63.8438 325.951 56.8438ZM336.732 57.0312C336.732 61.5938 337.951 65.2031 340.389 67.8594C342.889 70.5469 346.186 71.8906 350.279 71.8906C354.404 71.8906 357.701 70.5625 360.17 67.9062C362.639 65.25 363.873 61.7031 363.873 57.2656C363.873 52.8281 362.639 49.2812 360.17 46.625C357.67 43.9375 354.373 42.5938 350.279 42.5938C346.248 42.5938 342.982 43.9375 340.482 46.625C337.982 49.3125 336.732 52.7812 336.732 57.0312Z" fill="#111111"/>
<path d="M320.508 0.828125V80H309.961V0.828125H320.508Z" fill="#111111"/>
<path d="M302.409 78.9219C302.409 81.0781 302.331 82.9688 302.174 84.5938C302.049 86.25 301.862 87.7031 301.612 88.9531C300.862 92.3906 299.393 95.3438 297.206 97.8125C293.081 102.562 287.409 104.938 280.19 104.938C274.096 104.938 269.081 103.297 265.143 100.016C261.081 96.6406 258.737 91.9688 258.112 86H268.706C269.112 88.25 269.784 89.9844 270.721 91.2031C272.909 94.0469 276.096 95.4688 280.284 95.4688C288.003 95.4688 291.862 90.7344 291.862 81.2656V74.8906C287.674 79.1719 282.846 81.3125 277.378 81.3125C271.159 81.3125 266.065 79.0625 262.096 74.5625C258.096 70 256.096 64.2969 256.096 57.4531C256.096 50.7969 257.956 45.1406 261.674 40.4844C265.674 35.5469 270.956 33.0781 277.518 33.0781C283.268 33.0781 288.049 35.2188 291.862 39.5V34.3438H302.409V78.9219ZM292.284 57.2656C292.284 52.8281 291.096 49.2812 288.721 46.625C286.315 43.9062 283.237 42.5469 279.487 42.5469C275.487 42.5469 272.331 44.0312 270.018 47C267.924 49.6562 266.878 53.0938 266.878 57.3125C266.878 61.4688 267.924 64.875 270.018 67.5312C272.299 70.4375 275.456 71.8906 279.487 71.8906C283.518 71.8906 286.706 70.4219 289.049 67.4844C291.206 64.8281 292.284 61.4219 292.284 57.2656Z" fill="#111111"/>
<path d="M238.788 34.3438V80H228.241V34.3438H238.788ZM226.647 20.3594C226.647 18.5156 227.319 16.9219 228.663 15.5781C230.007 14.2344 231.616 13.5625 233.491 13.5625C235.397 13.5625 237.022 14.2344 238.366 15.5781C239.71 16.8906 240.382 18.5 240.382 20.4062C240.382 22.3125 239.71 23.9375 238.366 25.2812C237.054 26.625 235.444 27.2969 233.538 27.2969C231.632 27.2969 230.007 26.625 228.663 25.2812C227.319 23.9375 226.647 22.2969 226.647 20.3594Z" fill="#111111"/>
<path d="M210.095 34.3438H220.689V80H210.095V75.2188C205.751 79.2812 201.079 81.3125 196.079 81.3125C189.767 81.3125 184.548 79.0312 180.423 74.4688C176.329 69.8125 174.283 64 174.283 57.0312C174.283 50.1875 176.329 44.4844 180.423 39.9219C184.517 35.3594 189.642 33.0781 195.798 33.0781C201.111 33.0781 205.876 35.2656 210.095 39.6406V34.3438ZM185.064 57.0312C185.064 61.4062 186.236 64.9688 188.579 67.7188C190.986 70.5 194.017 71.8906 197.673 71.8906C201.579 71.8906 204.736 70.5469 207.142 67.8594C209.548 65.0781 210.751 61.5469 210.751 57.2656C210.751 52.9844 209.548 49.4531 207.142 46.6719C204.736 43.9531 201.611 42.5938 197.767 42.5938C194.142 42.5938 191.111 43.9688 188.673 46.7188C186.267 49.5 185.064 52.9375 185.064 57.0312Z" fill="#111111"/>
<path d="M106.261 34.3438H116.808V38.5625C118.839 36.4375 120.574 35 122.011 34.25C123.542 33.4688 125.464 33.0781 127.777 33.0781C132.933 33.0781 137.011 35.3281 140.011 39.8281C143.324 35.3281 147.808 33.0781 153.464 33.0781C163.746 33.0781 168.886 39.3125 168.886 51.7812V80H158.292V54.6406C158.292 50.2656 157.761 47.1719 156.699 45.3594C155.605 43.5156 153.808 42.5938 151.308 42.5938C148.402 42.5938 146.277 43.6875 144.933 45.875C143.621 48.0625 142.964 51.5781 142.964 56.4219V80H132.371V54.7812C132.371 46.6562 130.027 42.5938 125.339 42.5938C122.371 42.5938 120.199 43.7031 118.824 45.9219C117.48 48.1406 116.808 51.6406 116.808 56.4219V80H106.261V34.3438Z" fill="#111111"/>
<path d="M88.115 34.3438H98.7087V80H88.115V75.2188C83.7712 79.2812 79.0994 81.3125 74.0994 81.3125C67.7869 81.3125 62.5681 79.0312 58.4431 74.4688C54.3494 69.8125 52.3025 64 52.3025 57.0312C52.3025 50.1875 54.3494 44.4844 58.4431 39.9219C62.5369 35.3594 67.6619 33.0781 73.8181 33.0781C79.1306 33.0781 83.8962 35.2656 88.115 39.6406V34.3438ZM63.0837 57.0312C63.0837 61.4062 64.2556 64.9688 66.5994 67.7188C69.0056 70.5 72.0369 71.8906 75.6931 71.8906C79.5994 71.8906 82.7556 70.5469 85.1619 67.8594C87.5681 65.0781 88.7712 61.5469 88.7712 57.2656C88.7712 52.9844 87.5681 49.4531 85.1619 46.6719C82.7556 43.9531 79.6306 42.5938 75.7869 42.5938C72.1619 42.5938 69.1306 43.9688 66.6931 46.7188C64.2869 49.5 63.0837 52.9375 63.0837 57.0312Z" fill="#111111"/>
<path d="M36.3125 0.828125H46.9062V80H36.3125V75.2188C32.1562 79.2812 27.4531 81.3125 22.2031 81.3125C15.9531 81.3125 10.7656 79.0312 6.64062 74.4688C2.54688 69.8125 0.5 64 0.5 57.0312C0.5 50.2188 2.54688 44.5312 6.64062 39.9688C10.7031 35.375 15.8125 33.0781 21.9688 33.0781C27.3125 33.0781 32.0938 35.2656 36.3125 39.6406V0.828125ZM11.2812 57.0312C11.2812 61.4062 12.4531 64.9688 14.7969 67.7188C17.2031 70.5 20.2344 71.8906 23.8906 71.8906C27.7969 71.8906 30.9531 70.5469 33.3594 67.8594C35.7656 65.0781 36.9688 61.5469 36.9688 57.2656C36.9688 52.9844 35.7656 49.4531 33.3594 46.6719C30.9531 43.9531 27.8281 42.5938 23.9844 42.5938C20.3594 42.5938 17.3281 43.9688 14.8906 46.7188C12.4844 49.5 11.2812 52.9375 11.2812 57.0312Z" fill="#111111"/>
</svg>
